<?xml version="1.0" standalone="no"?>
<!DOCTYPE svg PUBLIC "-//W3C//DTD SVG 20010904//EN"
 "http://www.w3.org/TR/2001/REC-SVG-20010904/DTD/svg10.dtd">
<svg version="1.0" xmlns="http://www.w3.org/2000/svg"
 width="512.000000pt" height="512.000000pt" viewBox="0 0 512.000000 512.000000"
 preserveAspectRatio="xMidYMid meet">

<g transform="translate(0.000000,512.000000) scale(0.100000,-0.100000)"
fill="#000000" stroke="none">
<path d="M721 5103 c-11 -10 -47 -67 -80 -127 l-59 -108 -113 -62 c-187 -103
-188 -135 -6 -237 l118 -65 67 -119 c103 -184 134 -183 237 4 l62 114 109 59
c117 63 144 87 144 123 0 37 -28 61 -144 124 l-109 59 -59 109 c-62 115 -86
143 -123 143 -13 0 -32 -8 -44 -17z m81 -283 c28 -52 42 -66 98 -97 49 -28 61
-38 50 -45 -8 -5 -38 -22 -66 -38 -41 -23 -57 -40 -84 -91 -25 -48 -36 -60
-42 -49 -5 8 -22 39 -39 67 -24 44 -40 58 -89 83 -33 17 -60 32 -60 34 0 3 27
20 61 38 51 28 66 42 96 96 19 34 36 62 38 62 2 0 19 -27 37 -60z"/>
<path d="M2464 4952 c-380 -233 -2113 -1327 -2126 -1343 -17 -20 -18 -76 -18
-866 l0 -844 25 -24 c29 -30 64 -32 96 -6 l24 19 5 452 5 453 435 273 c239
151 441 273 449 271 8 -1 47 -63 88 -137 130 -239 154 -240 282 -4 l76 139
139 76 c138 75 176 105 176 139 0 29 -36 65 -97 98 -110 59 -131 34 222 256
l315 198 1043 -655 1042 -654 3 -1041 2 -1042 -569 0 -569 0 33 68 c43 88 55
148 55 287 0 113 0 115 23 115 35 0 221 -28 332 -50 56 -10 110 -17 121 -15
10 2 31 6 46 10 37 7 95 59 119 107 11 21 31 86 45 145 14 60 31 117 37 128 5
11 54 66 107 121 70 73 107 121 131 170 31 63 34 77 34 159 0 99 -17 159 -66
231 -106 155 -409 196 -803 108 -60 -13 -113 -24 -117 -24 -5 0 -9 28 -9 63 0
92 -24 152 -85 213 -64 65 -130 89 -221 81 -65 -5 -130 -34 -168 -76 l-19 -20
-40 34 c-103 88 -279 84 -365 -8 l-24 -25 -50 38 c-106 80 -224 82 -337 5
l-51 -34 -51 34 c-63 43 -118 58 -189 53 -133 -10 -237 -112 -256 -252 l-7
-47 -101 8 c-156 12 -491 9 -581 -5 -267 -43 -433 -137 -501 -284 -26 -58 -28
-73 -29 -178 0 -114 1 -117 37 -191 44 -89 107 -154 237 -247 128 -90 154
-119 192 -215 72 -182 121 -255 194 -288 66 -30 121 -24 268 29 115 43 266 92
280 92 2 0 7 -34 11 -75 7 -79 33 -167 66 -222 11 -19 20 -36 20 -39 0 -2
-306 -4 -680 -4 l-680 0 0 455 0 456 -25 24 c-31 32 -69 32 -100 0 l-25 -24 0
-456 0 -455 -105 0 c-99 0 -107 -2 -130 -25 l-25 -24 0 -306 0 -306 25 -24 24
-25 2451 0 2451 0 24 25 25 24 0 306 0 306 -25 24 c-23 23 -31 25 -130 25
l-105 0 0 1439 0 1440 -22 24 c-41 44 -1081 687 -1111 687 -61 0 -91 -85 -44
-127 12 -11 246 -161 520 -333 274 -172 501 -318 503 -324 2 -6 3 -131 2 -278
l-3 -267 -155 98 c-1234 778 -1906 1194 -1930 1194 -18 0 -152 -78 -398 -233
-205 -128 -374 -231 -376 -229 -1 2 -27 49 -56 104 -87 164 -112 189 -169 165
-22 -9 -46 -45 -108 -157 l-80 -146 -146 -80 c-117 -64 -148 -86 -158 -110
-18 -42 2 -73 74 -115 32 -19 56 -36 55 -37 -2 -1 -156 -98 -343 -215 -187
-117 -350 -220 -362 -228 l-23 -14 1 278 0 279 667 418 c367 229 836 523 1042
652 223 140 381 233 390 230 8 -3 193 -118 410 -255 218 -137 408 -252 423
-255 21 -6 33 -1 58 24 25 26 30 37 24 59 -3 15 -14 34 -23 44 -15 14 -750
479 -847 535 -22 12 -47 23 -56 23 -9 0 -51 -22 -95 -48z m-819 -1205 l50 -92
92 -50 c51 -27 93 -52 93 -55 -1 -3 -42 -27 -93 -55 l-92 -50 -50 -92 c-27
-51 -52 -92 -55 -93 -3 0 -27 42 -55 93 l-50 92 -92 50 c-51 28 -92 52 -93 55
0 3 42 28 93 55 l92 50 50 92 c27 51 52 93 55 93 3 0 28 -42 55 -93z m469
-1306 l31 -31 5 -259 c5 -237 7 -261 24 -280 21 -23 83 -29 116 -11 34 18 40
66 40 305 0 220 1 234 21 259 69 88 199 63 229 -43 5 -20 10 -138 10 -263 0
-215 1 -229 20 -248 26 -26 89 -27 121 -1 24 19 24 21 29 279 5 242 6 261 25
282 46 51 107 63 164 32 66 -36 71 -57 71 -326 0 -232 1 -240 22 -263 32 -34
99 -32 127 3 20 25 21 39 21 266 0 265 3 282 63 318 41 25 93 25 134 0 67 -40
64 -2 61 -813 l-3 -732 -33 -67 c-59 -120 -172 -200 -306 -215 -33 -4 -58 -14
-73 -29 -23 -23 -23 -27 -23 -239 l0 -215 -340 0 -340 0 0 218 c0 214 0 219
-22 239 -15 13 -44 23 -79 27 -118 14 -240 99 -292 203 -46 90 -47 116 -47
840 0 670 0 688 20 729 39 80 141 98 204 35z m-471 -257 l97 -7 0 -482 0 -483
-87 -26 c-49 -14 -149 -49 -223 -76 -74 -28 -145 -50 -157 -50 -43 0 -78 53
-147 224 -47 116 -83 159 -226 261 -65 47 -137 106 -159 131 -84 96 -95 258
-24 353 55 73 190 129 358 150 50 6 104 13 120 15 37 5 314 -1 448 -10z m2609
-5 c104 -22 160 -66 183 -143 34 -115 8 -180 -126 -320 -52 -54 -104 -114
-116 -134 -12 -20 -34 -85 -48 -145 -34 -145 -46 -167 -90 -167 -19 0 -58 5
-87 11 -29 7 -123 22 -208 33 l-155 21 -3 387 c-2 362 -1 387 15 391 73 21
250 58 308 66 102 13 266 13 327 0z m-2213 -1644 c27 -13 69 -29 95 -36 l46
-11 0 -169 0 -169 -985 0 -985 0 0 205 0 205 890 0 891 0 48 -25z m2871 -180
l0 -205 -875 0 -875 0 0 168 0 168 48 13 c26 6 67 23 92 36 l45 23 783 1 782
1 0 -205z"/>
</g>
</svg>
